<svg width="205" height="205" viewBox="0 0 205 205" fill="none" xmlns="http://www.w3.org/2000/svg">
<g filter="url(#filter0_d_201_104)">
<path d="M102.5 14.775C102.5 6.615 109.152 -0.113552 117.22 1.1059C135.319 3.84143 152.404 11.5857 166.471 23.6C184.305 38.8316 196.118 59.9268 199.787 83.0912C203.456 106.256 198.739 129.969 186.485 149.966C174.231 169.963 155.243 184.932 132.938 192.179C110.633 199.426 86.4735 198.477 64.8057 189.502C43.1378 180.527 25.3833 164.115 14.7358 143.218C4.08834 122.321 1.24653 98.3107 6.72157 75.5056C11.0401 57.5175 20.3096 41.2104 33.3443 28.3588C39.155 22.6298 48.4914 24.1634 53.2877 30.765C58.084 37.3666 56.4674 46.5219 51.0368 52.6125C43.5144 61.0493 38.129 71.2663 35.4551 82.4039C31.6226 98.3675 33.6118 115.175 41.0651 129.803C48.5183 144.43 60.9464 155.919 76.114 162.201C91.2815 168.484 108.193 169.149 123.807 164.075C139.42 159.002 152.712 148.524 161.29 134.526C169.868 120.528 173.169 103.929 170.601 87.7139C168.033 71.4988 159.763 56.7321 147.279 46.07C138.57 38.6311 128.207 33.5308 117.163 31.127C109.189 29.3916 102.5 22.935 102.5 14.775Z" fill="url(#paint0_linear_201_104)"/>
</g>
<defs>
<filter id="filter0_d_201_104" x="-0.000137329" y="0.962494" width="205" height="204.038" filterUnits="userSpaceOnUse" color-interpolation-filters="sRGB">
<feFlood flood-opacity="0" result="BackgroundImageFix"/>
<feColorMatrix in="SourceAlpha" type="matrix" values="0 0 0 0 0 0 0 0 0 0 0 0 0 0 0 0 0 0 127 0" result="hardAlpha"/>
<feOffset dy="4"/>
<feGaussianBlur stdDeviation="2"/>
<feComposite in2="hardAlpha" operator="out"/>
<feColorMatrix type="matrix" values="0 0 0 0 0 0 0 0 0 0 0 0 0 0 0 0 0 0 0.25 0"/>
<feBlend mode="normal" in2="BackgroundImageFix" result="effect1_dropShadow_201_104"/>
<feBlend mode="normal" in="SourceGraphic" in2="effect1_dropShadow_201_104" result="shape"/>
</filter>
<linearGradient id="paint0_linear_201_104" x1="4" y1="82" x2="158" y2="178" gradientUnits="userSpaceOnUse">
<stop stop-color="#DF9780"/>
<stop offset="1" stop-color="#A66DE9"/>
</linearGradient>
</defs>
</svg>
